# xmcd
#
# Track frame offsets: 
#        150
#        51322
#        137658
#        162480
#        182405
#        212292
#        231671
#        260917
#        282006
#
# Disc length: 4094 seconds
#
# Revision: 1
# Processed by: cddbd v1.5.2PL0 Copyright (c) Steve Scherf et al.
# Submitted via: ExactAudioCopyFreeDBPlugin 1.0
#
DISCID=850ffc09
DTITLE=Thy Catafalque - Róka Hasa Rádió
DYEAR=2009
DGENRE=Black Metal
TTITLE0=Szervetlen
TTITLE1=Molekuláris Gépezetek
TTITLE2=Köd Utánam
TTITLE3=Űrhajók Makón
TTITLE4=Piroshátú
TTITLE5=Esőlámpás
TTITLE6=Kabócák, Bodobácsok
TTITLE7=Őszi Varázslok
TTITLE8=Fehér Berek
EXTD=
EXTT0=
EXTT1=
EXTT2=
EXTT3=
EXTT4=
EXTT5=
EXTT6=
EXTT7=
EXTT8=
PLAYORDER=
